<mxfile host="app.diagrams.net" modified="2023-05-24T13:02:44.200Z" agent="Mozilla/5.0 (Macintosh; Intel Mac OS X 10_15_7) AppleWebKit/605.1.15 (KHTML, like Gecko) Version/16.4 Safari/605.1.15" etag="1Mez2ylN2rHWPIFIyYRW" version="21.3.3" type="device">
  <diagram id="C5RBs43oDa-KdzZeNtuy" name="Page-1">
    <mxGraphModel dx="733" dy="860" grid="1" gridSize="10" guides="1" tooltips="1" connect="1" arrows="1" fold="1" page="1" pageScale="1" pageWidth="827" pageHeight="1169" math="0" shadow="0">
      <root>
        <mxCell id="WIyWlLk6GJQsqaUBKTNV-0" />
        <mxCell id="WIyWlLk6GJQsqaUBKTNV-1" parent="WIyWlLk6GJQsqaUBKTNV-0" />
        <mxCell id="sVE_lHYtiXadF0ECQuOR-0" value="Game" style="swimlane;fontStyle=1;align=center;verticalAlign=top;childLayout=stackLayout;horizontal=1;startSize=26;horizontalStack=0;resizeParent=1;resizeParentMax=0;resizeLast=0;collapsible=1;marginBottom=0;whiteSpace=wrap;html=1;" vertex="1" parent="WIyWlLk6GJQsqaUBKTNV-1">
          <mxGeometry x="40" y="60" width="230" height="140" as="geometry" />
        </mxCell>
        <mxCell id="sVE_lHYtiXadF0ECQuOR-1" value="+ code :&amp;nbsp;List[str]&lt;br&gt;+ guesses : List[List[str]]&lt;br&gt;+ hints : List[List[str]]" style="text;strokeColor=none;fillColor=none;align=left;verticalAlign=top;spacingLeft=4;spacingRight=4;overflow=hidden;rotatable=0;points=[[0,0.5],[1,0.5]];portConstraint=eastwest;whiteSpace=wrap;html=1;" vertex="1" parent="sVE_lHYtiXadF0ECQuOR-0">
          <mxGeometry y="26" width="230" height="54" as="geometry" />
        </mxCell>
        <mxCell id="sVE_lHYtiXadF0ECQuOR-2" value="" style="line;strokeWidth=1;fillColor=none;align=left;verticalAlign=middle;spacingTop=-1;spacingLeft=3;spacingRight=3;rotatable=0;labelPosition=right;points=[];portConstraint=eastwest;strokeColor=inherit;" vertex="1" parent="sVE_lHYtiXadF0ECQuOR-0">
          <mxGeometry y="80" width="230" height="8" as="geometry" />
        </mxCell>
        <mxCell id="sVE_lHYtiXadF0ECQuOR-3" value="+ generate_code() : None&lt;br&gt;+ is_game_over() : bool&lt;br&gt;+ get_solution() : List[str]" style="text;strokeColor=none;fillColor=none;align=left;verticalAlign=top;spacingLeft=4;spacingRight=4;overflow=hidden;rotatable=0;points=[[0,0.5],[1,0.5]];portConstraint=eastwest;whiteSpace=wrap;html=1;" vertex="1" parent="sVE_lHYtiXadF0ECQuOR-0">
          <mxGeometry y="88" width="230" height="52" as="geometry" />
        </mxCell>
        <mxCell id="sVE_lHYtiXadF0ECQuOR-4" value="ComputerPlayer" style="swimlane;fontStyle=1;align=center;verticalAlign=top;childLayout=stackLayout;horizontal=1;startSize=26;horizontalStack=0;resizeParent=1;resizeParentMax=0;resizeLast=0;collapsible=1;marginBottom=0;whiteSpace=wrap;html=1;" vertex="1" parent="WIyWlLk6GJQsqaUBKTNV-1">
          <mxGeometry x="320" y="70" width="340" height="130" as="geometry" />
        </mxCell>
        <mxCell id="sVE_lHYtiXadF0ECQuOR-6" value="" style="line;strokeWidth=1;fillColor=none;align=left;verticalAlign=middle;spacingTop=-1;spacingLeft=3;spacingRight=3;rotatable=0;labelPosition=right;points=[];portConstraint=eastwest;strokeColor=inherit;" vertex="1" parent="sVE_lHYtiXadF0ECQuOR-4">
          <mxGeometry y="26" width="340" height="8" as="geometry" />
        </mxCell>
        <mxCell id="sVE_lHYtiXadF0ECQuOR-7" value="+ make_guess() : List[str]&lt;br&gt;+&amp;nbsp;filter_possible_codes() : List[List[str]]&lt;br&gt;+&amp;nbsp;check_hints(code: List[str], guess: List[str]) : List[str]&lt;br&gt;+&amp;nbsp;get_best_guess(possible_solutions: List[List[str]]) : List[str]&lt;br&gt;+&amp;nbsp;count_guesses(guess: List[str], code: List[str]) : int&lt;br&gt;+ get_random_code() : List[str]" style="text;strokeColor=none;fillColor=none;align=left;verticalAlign=top;spacingLeft=4;spacingRight=4;overflow=hidden;rotatable=0;points=[[0,0.5],[1,0.5]];portConstraint=eastwest;whiteSpace=wrap;html=1;" vertex="1" parent="sVE_lHYtiXadF0ECQuOR-4">
          <mxGeometry y="34" width="340" height="96" as="geometry" />
        </mxCell>
        <mxCell id="sVE_lHYtiXadF0ECQuOR-23" style="edgeStyle=orthogonalEdgeStyle;rounded=0;orthogonalLoop=1;jettySize=auto;html=1;" edge="1" parent="WIyWlLk6GJQsqaUBKTNV-1" source="sVE_lHYtiXadF0ECQuOR-8" target="sVE_lHYtiXadF0ECQuOR-0">
          <mxGeometry relative="1" as="geometry">
            <Array as="points">
              <mxPoint x="155" y="280" />
              <mxPoint x="155" y="280" />
            </Array>
          </mxGeometry>
        </mxCell>
        <mxCell id="sVE_lHYtiXadF0ECQuOR-24" style="edgeStyle=orthogonalEdgeStyle;rounded=0;orthogonalLoop=1;jettySize=auto;html=1;" edge="1" parent="WIyWlLk6GJQsqaUBKTNV-1" source="sVE_lHYtiXadF0ECQuOR-8" target="sVE_lHYtiXadF0ECQuOR-16">
          <mxGeometry relative="1" as="geometry">
            <Array as="points">
              <mxPoint x="135" y="540" />
            </Array>
          </mxGeometry>
        </mxCell>
        <mxCell id="sVE_lHYtiXadF0ECQuOR-25" style="edgeStyle=orthogonalEdgeStyle;rounded=0;orthogonalLoop=1;jettySize=auto;html=1;" edge="1" parent="WIyWlLk6GJQsqaUBKTNV-1" source="sVE_lHYtiXadF0ECQuOR-8" target="sVE_lHYtiXadF0ECQuOR-12">
          <mxGeometry relative="1" as="geometry" />
        </mxCell>
        <mxCell id="sVE_lHYtiXadF0ECQuOR-8" value="MainGUI" style="swimlane;fontStyle=1;align=center;verticalAlign=top;childLayout=stackLayout;horizontal=1;startSize=26;horizontalStack=0;resizeParent=1;resizeParentMax=0;resizeLast=0;collapsible=1;marginBottom=0;whiteSpace=wrap;html=1;" vertex="1" parent="WIyWlLk6GJQsqaUBKTNV-1">
          <mxGeometry x="30" y="300" width="210" height="190" as="geometry" />
        </mxCell>
        <mxCell id="sVE_lHYtiXadF0ECQuOR-9" value="+ screen : pygame.display&lt;br&gt;+ board : Board&lt;br&gt;+ menu : Menu&lt;br&gt;+ game : Game&lt;br&gt;+ computer_player : ComputerPlayer" style="text;strokeColor=none;fillColor=none;align=left;verticalAlign=top;spacingLeft=4;spacingRight=4;overflow=hidden;rotatable=0;points=[[0,0.5],[1,0.5]];portConstraint=eastwest;whiteSpace=wrap;html=1;" vertex="1" parent="sVE_lHYtiXadF0ECQuOR-8">
          <mxGeometry y="26" width="210" height="84" as="geometry" />
        </mxCell>
        <mxCell id="sVE_lHYtiXadF0ECQuOR-10" value="" style="line;strokeWidth=1;fillColor=none;align=left;verticalAlign=middle;spacingTop=-1;spacingLeft=3;spacingRight=3;rotatable=0;labelPosition=right;points=[];portConstraint=eastwest;strokeColor=inherit;" vertex="1" parent="sVE_lHYtiXadF0ECQuOR-8">
          <mxGeometry y="110" width="210" height="8" as="geometry" />
        </mxCell>
        <mxCell id="sVE_lHYtiXadF0ECQuOR-11" value="+ run() : None&lt;br&gt;+ handle_events() : None&lt;br&gt;+ update() : None&lt;br&gt;+ render() : None" style="text;strokeColor=none;fillColor=none;align=left;verticalAlign=top;spacingLeft=4;spacingRight=4;overflow=hidden;rotatable=0;points=[[0,0.5],[1,0.5]];portConstraint=eastwest;whiteSpace=wrap;html=1;" vertex="1" parent="sVE_lHYtiXadF0ECQuOR-8">
          <mxGeometry y="118" width="210" height="72" as="geometry" />
        </mxCell>
        <mxCell id="sVE_lHYtiXadF0ECQuOR-12" value="Menu" style="swimlane;fontStyle=1;align=center;verticalAlign=top;childLayout=stackLayout;horizontal=1;startSize=26;horizontalStack=0;resizeParent=1;resizeParentMax=0;resizeLast=0;collapsible=1;marginBottom=0;whiteSpace=wrap;html=1;" vertex="1" parent="WIyWlLk6GJQsqaUBKTNV-1">
          <mxGeometry x="320" y="345" width="240" height="100" as="geometry" />
        </mxCell>
        <mxCell id="sVE_lHYtiXadF0ECQuOR-13" value="+ selected_color : str" style="text;strokeColor=none;fillColor=none;align=left;verticalAlign=top;spacingLeft=4;spacingRight=4;overflow=hidden;rotatable=0;points=[[0,0.5],[1,0.5]];portConstraint=eastwest;whiteSpace=wrap;html=1;" vertex="1" parent="sVE_lHYtiXadF0ECQuOR-12">
          <mxGeometry y="26" width="240" height="26" as="geometry" />
        </mxCell>
        <mxCell id="sVE_lHYtiXadF0ECQuOR-14" value="" style="line;strokeWidth=1;fillColor=none;align=left;verticalAlign=middle;spacingTop=-1;spacingLeft=3;spacingRight=3;rotatable=0;labelPosition=right;points=[];portConstraint=eastwest;strokeColor=inherit;" vertex="1" parent="sVE_lHYtiXadF0ECQuOR-12">
          <mxGeometry y="52" width="240" height="8" as="geometry" />
        </mxCell>
        <mxCell id="sVE_lHYtiXadF0ECQuOR-15" value="+ draw(screen : pygame.display) : None&lt;br&gt;+&amp;nbsp;update_selected_color(color: str) : None" style="text;strokeColor=none;fillColor=none;align=left;verticalAlign=top;spacingLeft=4;spacingRight=4;overflow=hidden;rotatable=0;points=[[0,0.5],[1,0.5]];portConstraint=eastwest;whiteSpace=wrap;html=1;" vertex="1" parent="sVE_lHYtiXadF0ECQuOR-12">
          <mxGeometry y="60" width="240" height="40" as="geometry" />
        </mxCell>
        <mxCell id="sVE_lHYtiXadF0ECQuOR-16" value="Board" style="swimlane;fontStyle=1;align=center;verticalAlign=top;childLayout=stackLayout;horizontal=1;startSize=26;horizontalStack=0;resizeParent=1;resizeParentMax=0;resizeLast=0;collapsible=1;marginBottom=0;whiteSpace=wrap;html=1;" vertex="1" parent="WIyWlLk6GJQsqaUBKTNV-1">
          <mxGeometry x="320" y="500" width="270" height="120" as="geometry" />
        </mxCell>
        <mxCell id="sVE_lHYtiXadF0ECQuOR-17" value="+ grid : List[List[str]]" style="text;strokeColor=none;fillColor=none;align=left;verticalAlign=top;spacingLeft=4;spacingRight=4;overflow=hidden;rotatable=0;points=[[0,0.5],[1,0.5]];portConstraint=eastwest;whiteSpace=wrap;html=1;" vertex="1" parent="sVE_lHYtiXadF0ECQuOR-16">
          <mxGeometry y="26" width="270" height="26" as="geometry" />
        </mxCell>
        <mxCell id="sVE_lHYtiXadF0ECQuOR-18" value="" style="line;strokeWidth=1;fillColor=none;align=left;verticalAlign=middle;spacingTop=-1;spacingLeft=3;spacingRight=3;rotatable=0;labelPosition=right;points=[];portConstraint=eastwest;strokeColor=inherit;" vertex="1" parent="sVE_lHYtiXadF0ECQuOR-16">
          <mxGeometry y="52" width="270" height="8" as="geometry" />
        </mxCell>
        <mxCell id="sVE_lHYtiXadF0ECQuOR-19" value="+&amp;nbsp;draw(screen : pygame.display) : None&lt;br&gt;+ update(row: int, column: int, color: str) : None&lt;br&gt;+ clear() : None" style="text;strokeColor=none;fillColor=none;align=left;verticalAlign=top;spacingLeft=4;spacingRight=4;overflow=hidden;rotatable=0;points=[[0,0.5],[1,0.5]];portConstraint=eastwest;whiteSpace=wrap;html=1;" vertex="1" parent="sVE_lHYtiXadF0ECQuOR-16">
          <mxGeometry y="60" width="270" height="60" as="geometry" />
        </mxCell>
        <mxCell id="sVE_lHYtiXadF0ECQuOR-26" style="edgeStyle=orthogonalEdgeStyle;rounded=0;orthogonalLoop=1;jettySize=auto;html=1;" edge="1" parent="WIyWlLk6GJQsqaUBKTNV-1" source="sVE_lHYtiXadF0ECQuOR-9" target="sVE_lHYtiXadF0ECQuOR-4">
          <mxGeometry relative="1" as="geometry">
            <Array as="points">
              <mxPoint x="270" y="368" />
              <mxPoint x="270" y="280" />
              <mxPoint x="480" y="280" />
            </Array>
          </mxGeometry>
        </mxCell>
      </root>
    </mxGraphModel>
  </diagram>
</mxfile>
